<?xml version="1.0" standalone="no"?>
<!DOCTYPE svg PUBLIC "-//W3C//DTD SVG 20010904//EN"
 "http://www.w3.org/TR/2001/REC-SVG-20010904/DTD/svg10.dtd">
<svg version="1.0" xmlns="http://www.w3.org/2000/svg"
 width="100%" height="100%" viewBox="0 0 1200.000000 1200.000000"
 preserveAspectRatio="xMidYMid meet">

<g transform="translate(0.000000,1200.000000) scale(0.100000,-0.100000)"
fill="#000000" stroke="none">
<path d="M5770 11094 c-455 -24 -831 -88 -1278 -220 -84 -25 -163 -49 -175
-54 -12 -5 -76 -29 -142 -53 -534 -197 -1116 -542 -1545 -917 -1065 -930
-1685 -2162 -1791 -3560 -15 -195 -6 -714 15 -900 52 -464 139 -835 296 -1268
l50 -136 0 -1018 0 -1018 744 0 743 0 89 -71 c556 -445 1226 -781 1924 -963
568 -149 1232 -197 1845 -136 149 15 450 65 604 100 740 169 1461 513 2050
980 l114 90 744 0 743 0 0 1017 0 1018 55 150 c172 474 272 947 306 1451 13
189 7 678 -11 839 -97 900 -388 1697 -887 2430 -416 610 -973 1130 -1628 1523
-264 158 -665 343 -965 445 -125 43 -387 117 -521 147 -166 38 -464 86 -614
100 -66 6 -141 13 -167 16 -60 6 -511 12 -598 8z m670 -389 c178 -18 443 -57
575 -86 1236 -270 2309 -1011 3008 -2076 527 -805 799 -1761 773 -2718 -6
-250 -7 -261 -32 -465 -51 -422 -161 -860 -308 -1220 l-34 -85 -4422 0 -4422
0 -39 95 c-38 93 -117 327 -158 465 -51 173 -113 483 -146 735 -32 240 -44
664 -25 911 65 838 322 1605 768 2284 625 953 1536 1637 2627 1974 572 176
1238 244 1835 186z m138 -7536 l-6 -252 132 132 131 131 60 0 60 -1 -123 -117
c-67 -64 -122 -121 -122 -125 0 -5 59 -78 131 -163 l130 -154 -59 0 -60 0
-106 125 -107 125 -29 -15 -30 -16 0 -109 0 -110 -50 0 -50 0 0 400 0 400 51
0 52 0 -5 -251z m-1888 24 c1 -170 1 -177 18 -156 9 12 73 91 142 177 l124
156 53 0 c29 0 53 -2 53 -5 0 -3 -57 -76 -127 -162 -71 -86 -127 -160 -126
-164 2 -5 61 -98 133 -208 71 -109 130 -202 130 -205 0 -3 -24 -6 -54 -6 l-54
0 -112 175 c-62 96 -116 175 -119 175 -4 0 -19 -13 -34 -28 -27 -28 -27 -29
-27 -175 l0 -147 -53 0 -54 0 0 375 0 375 54 0 53 0 0 -177z m2730 47 l0 -30
-160 0 -160 0 0 30 0 30 160 0 160 0 0 -30z m-1899 -61 c91 -31 146 -113 151
-229 l3 -65 -197 -3 -198 -2 0 -28 c0 -42 41 -114 77 -135 41 -23 156 -24 228
-2 28 8 51 15 53 15 1 0 2 -20 2 -44 0 -41 -3 -45 -32 -56 -48 -17 -196 -24
-244 -11 -134 36 -206 171 -182 342 13 99 69 179 148 213 42 18 143 21 191 5z
m675 -10 c26 -12 53 -36 66 -57 22 -35 23 -48 26 -264 l3 -228 -50 0 -50 0 -3
215 -3 215 -27 26 c-56 57 -170 37 -213 -36 -18 -31 -20 -56 -23 -227 l-4
-193 -49 0 -49 0 0 280 0 280 39 0 c40 0 51 -11 51 -53 0 -19 3 -18 33 10 43
42 69 52 146 52 46 1 77 -5 107 -20z m1169 -68 c82 -37 118 -110 118 -236 0
-169 -75 -255 -223 -255 -148 0 -223 86 -223 255 0 172 72 255 223 255 42 0
79 -7 105 -19z m1305 -1165 c-22 -21 -214 -138 -370 -224 -349 -195 -836 -380
-1215 -464 -780 -171 -1519 -163 -2270 24 -198 49 -550 168 -695 235 -41 20
-113 52 -160 73 -150 66 -469 245 -620 347 l-35 23 2690 0 c2326 0 2687 -2
2675 -14z"/>
<path d="M5925 8478 c-149 -160 -282 -434 -340 -699 -25 -113 -30 -318 -11
-408 20 -96 63 -186 112 -235 45 -44 145 -95 204 -103 l40 -6 0 -426 0 -426
-229 229 -229 229 20 45 c44 99 3 225 -109 339 -132 134 -354 242 -497 243
l-39 0 6 -92 c26 -375 269 -712 464 -645 l41 14 286 -286 286 -286 0 -133 0
-132 70 0 70 0 0 123 0 122 298 298 299 299 49 -17 c104 -35 215 25 312 169
94 141 152 318 155 476 l2 95 -40 -3 c-175 -13 -427 -153 -535 -296 -75 -99
-98 -201 -64 -285 l16 -40 -240 -240 c-132 -133 -243 -241 -246 -241 -3 0 -6
196 -6 435 l0 434 43 12 c99 26 183 92 227 179 94 183 75 523 -45 825 -71 179
-196 386 -283 468 l-29 28 -58 -63z"/>
<path d="M5365 3096 c-16 -7 -37 -22 -46 -32 -15 -18 -39 -76 -39 -95 0 -5 66
-9 146 -9 l146 0 -7 38 c-9 51 -31 81 -70 98 -42 17 -91 17 -130 0z"/>
<path d="M7230 3070 c-71 -15 -94 -62 -94 -195 0 -158 32 -218 118 -218 94 0
129 55 130 203 0 101 -13 157 -44 185 -23 20 -76 33 -110 25z"/>
</g>
</svg>
